<svg width="237" height="57" viewBox="0 38 237 57" fill="none" xmlns="http://www.w3.org/2000/svg">
<path d="M7.872 93V41.736H19.296V55.56L17.28 51.336C19.072 48.072 21.664 45.576 25.056 43.848C28.512 42.056 32.48 41.16 36.96 41.16C41.056 41.16 44.704 41.96 47.904 43.56C51.168 45.16 53.728 47.624 55.584 50.952C57.44 54.216 58.368 58.44 58.368 63.624V93H46.368V65.16C46.368 60.616 45.28 57.224 43.104 54.984C40.992 52.744 38.016 51.624 34.176 51.624C31.36 51.624 28.864 52.2 26.688 53.352C24.512 54.504 22.816 56.232 21.6 58.536C20.448 60.776 19.872 63.624 19.872 67.08V93H7.872ZM97.7805 93.672C92.0845 93.672 87.0925 92.552 82.8045 90.312C78.5805 88.008 75.2845 84.872 72.9165 80.904C70.6125 76.936 69.4605 72.424 69.4605 67.368C69.4605 62.248 70.5805 57.736 72.8205 53.832C75.1245 49.864 78.2605 46.76 82.2285 44.52C86.2605 42.28 90.8365 41.16 95.9565 41.16C100.949 41.16 105.397 42.248 109.301 44.424C113.205 46.6 116.277 49.672 118.517 53.64C120.757 57.608 121.877 62.28 121.877 67.656C121.877 68.168 121.845 68.744 121.781 69.384C121.781 70.024 121.749 70.632 121.685 71.208H78.9645V63.24H115.349L110.645 65.736C110.709 62.792 110.101 60.2 108.821 57.96C107.541 55.72 105.781 53.96 103.541 52.68C101.365 51.4 98.8365 50.76 95.9565 50.76C93.0125 50.76 90.4205 51.4 88.1805 52.68C86.0045 53.96 84.2765 55.752 82.9965 58.056C81.7805 60.296 81.1725 62.952 81.1725 66.024V67.944C81.1725 71.016 81.8765 73.736 83.2845 76.104C84.6925 78.472 86.6765 80.296 89.2365 81.576C91.7965 82.856 94.7405 83.496 98.0685 83.496C100.949 83.496 103.541 83.048 105.845 82.152C108.149 81.256 110.197 79.848 111.989 77.928L118.421 85.32C116.117 88.008 113.205 90.088 109.685 91.56C106.229 92.968 102.261 93.672 97.7805 93.672ZM124.989 93L147.549 63.624L147.357 70.056L125.853 41.736H139.197L154.269 61.896H149.181L164.349 41.736H177.309L155.613 70.056L155.709 63.624L178.173 93H164.637L148.797 71.592L153.789 72.264L138.237 93H124.989ZM217.675 93V82.632L217.003 80.424V62.28C217.003 58.76 215.947 56.04 213.835 54.12C211.723 52.136 208.523 51.144 204.235 51.144C201.355 51.144 198.507 51.592 195.691 52.488C192.939 53.384 190.603 54.632 188.683 56.232L183.979 47.496C186.731 45.384 189.995 43.816 193.771 42.792C197.611 41.704 201.579 41.16 205.675 41.16C213.099 41.16 218.827 42.952 222.859 46.536C226.955 50.056 229.003 55.528 229.003 62.952V93H217.675ZM201.547 93.672C197.707 93.672 194.347 93.032 191.467 91.752C188.587 90.408 186.347 88.584 184.747 86.28C183.211 83.912 182.443 81.256 182.443 78.312C182.443 75.432 183.115 72.84 184.459 70.536C185.867 68.232 188.139 66.408 191.275 65.064C194.411 63.72 198.571 63.048 203.755 63.048H218.635V71.016H204.619C200.523 71.016 197.771 71.688 196.363 73.032C194.955 74.312 194.251 75.912 194.251 77.832C194.251 80.008 195.115 81.736 196.843 83.016C198.571 84.296 200.971 84.936 204.043 84.936C206.987 84.936 209.611 84.264 211.915 82.92C214.283 81.576 215.979 79.592 217.003 76.968L219.019 84.168C217.867 87.176 215.787 89.512 212.779 91.176C209.835 92.84 206.091 93.672 201.547 93.672Z" fill="#431859"/>
</svg>
