<svg width="237" height="135" viewBox="0 0 237 135" fill="none" xmlns="http://www.w3.org/2000/svg">
<g filter="url(#filter0_i_24_12)">
<path d="M7.872 93V41.736H19.296V55.56L17.28 51.336C19.072 48.072 21.664 45.576 25.056 43.848C28.512 42.056 32.48 41.16 36.96 41.16C41.056 41.16 44.704 41.96 47.904 43.56C51.168 45.16 53.728 47.624 55.584 50.952C57.44 54.216 58.368 58.44 58.368 63.624V93H46.368V65.16C46.368 60.616 45.28 57.224 43.104 54.984C40.992 52.744 38.016 51.624 34.176 51.624C31.36 51.624 28.864 52.2 26.688 53.352C24.512 54.504 22.816 56.232 21.6 58.536C20.448 60.776 19.872 63.624 19.872 67.08V93H7.872ZM97.7805 93.672C92.0845 93.672 87.0925 92.552 82.8045 90.312C78.5805 88.008 75.2845 84.872 72.9165 80.904C70.6125 76.936 69.4605 72.424 69.4605 67.368C69.4605 62.248 70.5805 57.736 72.8205 53.832C75.1245 49.864 78.2605 46.76 82.2285 44.52C86.2605 42.28 90.8365 41.16 95.9565 41.16C100.949 41.16 105.397 42.248 109.301 44.424C113.205 46.6 116.277 49.672 118.517 53.64C120.757 57.608 121.877 62.28 121.877 67.656C121.877 68.168 121.845 68.744 121.781 69.384C121.781 70.024 121.749 70.632 121.685 71.208H78.9645V63.24H115.349L110.645 65.736C110.709 62.792 110.101 60.2 108.821 57.96C107.541 55.72 105.781 53.96 103.541 52.68C101.365 51.4 98.8365 50.76 95.9565 50.76C93.0125 50.76 90.4205 51.4 88.1805 52.68C86.0045 53.96 84.2765 55.752 82.9965 58.056C81.7805 60.296 81.1725 62.952 81.1725 66.024V67.944C81.1725 71.016 81.8765 73.736 83.2845 76.104C84.6925 78.472 86.6765 80.296 89.2365 81.576C91.7965 82.856 94.7405 83.496 98.0685 83.496C100.949 83.496 103.541 83.048 105.845 82.152C108.149 81.256 110.197 79.848 111.989 77.928L118.421 85.32C116.117 88.008 113.205 90.088 109.685 91.56C106.229 92.968 102.261 93.672 97.7805 93.672ZM124.989 93L147.549 63.624L147.357 70.056L125.853 41.736H139.197L154.269 61.896H149.181L164.349 41.736H177.309L155.613 70.056L155.709 63.624L178.173 93H164.637L148.797 71.592L153.789 72.264L138.237 93H124.989ZM217.675 93V82.632L217.003 80.424V62.28C217.003 58.76 215.947 56.04 213.835 54.12C211.723 52.136 208.523 51.144 204.235 51.144C201.355 51.144 198.507 51.592 195.691 52.488C192.939 53.384 190.603 54.632 188.683 56.232L183.979 47.496C186.731 45.384 189.995 43.816 193.771 42.792C197.611 41.704 201.579 41.16 205.675 41.16C213.099 41.16 218.827 42.952 222.859 46.536C226.955 50.056 229.003 55.528 229.003 62.952V93H217.675ZM201.547 93.672C197.707 93.672 194.347 93.032 191.467 91.752C188.587 90.408 186.347 88.584 184.747 86.28C183.211 83.912 182.443 81.256 182.443 78.312C182.443 75.432 183.115 72.84 184.459 70.536C185.867 68.232 188.139 66.408 191.275 65.064C194.411 63.72 198.571 63.048 203.755 63.048H218.635V71.016H204.619C200.523 71.016 197.771 71.688 196.363 73.032C194.955 74.312 194.251 75.912 194.251 77.832C194.251 80.008 195.115 81.736 196.843 83.016C198.571 84.296 200.971 84.936 204.043 84.936C206.987 84.936 209.611 84.264 211.915 82.92C214.283 81.576 215.979 79.592 217.003 76.968L219.019 84.168C217.867 87.176 215.787 89.512 212.779 91.176C209.835 92.84 206.091 93.672 201.547 93.672Z" fill="#C9A8D9"/>
</g>
<path d="M14.736 127L7.184 104.6H9.616L16.688 125.688H15.472L22.768 104.6H24.944L32.144 125.688H30.992L38.128 104.6H40.4L32.848 127H30.352L23.472 107H24.112L17.2 127H14.736ZM44.7418 127V104.6H60.1018V106.648H47.1098V124.952H60.5818V127H44.7418ZM46.8538 116.632V114.616H58.6938V116.632H46.8538ZM66.148 127V104.6H75.812C78.308 104.6 80.2387 105.101 81.604 106.104C82.9907 107.107 83.684 108.525 83.684 110.36C83.684 111.576 83.396 112.6 82.82 113.432C82.2653 114.264 81.4973 114.893 80.516 115.32C79.556 115.747 78.5 115.96 77.348 115.96L77.892 115.192C79.3213 115.192 80.548 115.416 81.572 115.864C82.6173 116.291 83.428 116.941 84.004 117.816C84.58 118.669 84.868 119.736 84.868 121.016C84.868 122.915 84.164 124.387 82.756 125.432C81.3693 126.477 79.268 127 76.452 127H66.148ZM68.516 125.048H76.42C78.3827 125.048 79.8867 124.717 80.932 124.056C81.9773 123.373 82.5 122.296 82.5 120.824C82.5 119.373 81.9773 118.317 80.932 117.656C79.8867 116.973 78.3827 116.632 76.42 116.632H68.26V114.68H75.652C77.444 114.68 78.8307 114.339 79.812 113.656C80.8147 112.973 81.316 111.96 81.316 110.616C81.316 109.251 80.8147 108.237 79.812 107.576C78.8307 106.893 77.444 106.552 75.652 106.552H68.516V125.048ZM95.064 127L105.304 104.6H107.64L117.88 127H115.384L105.976 105.976H106.936L97.528 127H95.064ZM99.096 121.016L99.8 119.096H112.824L113.528 121.016H99.096ZM131.097 127.192C129.39 127.192 127.812 126.915 126.361 126.36C124.932 125.784 123.684 124.984 122.617 123.96C121.572 122.936 120.75 121.731 120.153 120.344C119.577 118.957 119.289 117.443 119.289 115.8C119.289 114.157 119.577 112.643 120.153 111.256C120.75 109.869 121.582 108.664 122.649 107.64C123.716 106.616 124.964 105.827 126.393 105.272C127.844 104.696 129.422 104.408 131.129 104.408C132.836 104.408 134.393 104.675 135.801 105.208C137.23 105.741 138.446 106.552 139.449 107.64L137.977 109.144C137.038 108.205 136.004 107.533 134.873 107.128C133.742 106.723 132.526 106.52 131.225 106.52C129.838 106.52 128.558 106.755 127.385 107.224C126.233 107.672 125.22 108.323 124.345 109.176C123.492 110.008 122.82 110.989 122.329 112.12C121.86 113.229 121.625 114.456 121.625 115.8C121.625 117.123 121.86 118.349 122.329 119.48C122.82 120.611 123.492 121.603 124.345 122.456C125.22 123.288 126.233 123.939 127.385 124.408C128.558 124.856 129.828 125.08 131.193 125.08C132.473 125.08 133.678 124.888 134.809 124.504C135.961 124.12 137.017 123.469 137.977 122.552L139.321 124.344C138.254 125.283 137.006 125.997 135.577 126.488C134.148 126.957 132.654 127.192 131.097 127.192ZM139.321 124.344L137.049 124.056V115.8H139.321V124.344ZM146.023 127V104.6H161.383V106.648H148.391V124.952H161.863V127H146.023ZM148.135 116.632V114.616H159.975V116.632H148.135ZM167.429 127V104.6H169.381L184.837 124.056H183.813V104.6H186.149V127H184.197L168.773 107.544H169.797V127H167.429ZM203.189 127.192C201.503 127.192 199.946 126.915 198.517 126.36C197.087 125.784 195.85 124.984 194.805 123.96C193.759 122.936 192.938 121.731 192.341 120.344C191.765 118.957 191.477 117.443 191.477 115.8C191.477 114.157 191.765 112.643 192.341 111.256C192.938 109.869 193.759 108.664 194.805 107.64C195.871 106.616 197.119 105.827 198.549 105.272C199.978 104.696 201.535 104.408 203.221 104.408C204.842 104.408 206.367 104.685 207.797 105.24C209.226 105.773 210.431 106.584 211.413 107.672L209.909 109.176C208.991 108.237 207.978 107.565 206.869 107.16C205.759 106.733 204.565 106.52 203.285 106.52C201.941 106.52 200.693 106.755 199.541 107.224C198.389 107.672 197.386 108.323 196.533 109.176C195.679 110.008 195.007 110.989 194.516 112.12C194.047 113.229 193.812 114.456 193.812 115.8C193.812 117.144 194.047 118.381 194.516 119.512C195.007 120.621 195.679 121.603 196.533 122.456C197.386 123.288 198.389 123.939 199.541 124.408C200.693 124.856 201.941 125.08 203.285 125.08C204.565 125.08 205.759 124.867 206.869 124.44C207.978 124.013 208.991 123.331 209.909 122.392L211.413 123.896C210.431 124.984 209.226 125.805 207.797 126.36C206.367 126.915 204.831 127.192 203.189 127.192ZM221.023 127V118.68L221.567 120.152L212.063 104.6H214.591L222.943 118.264H221.599L229.951 104.6H232.319L222.815 120.152L223.359 118.68V127H221.023Z" fill="#C9A8D9"/>
<defs>
<filter id="filter0_i_24_12" x="7.87201" y="41.16" width="221.131" height="56.512" filterUnits="userSpaceOnUse" color-interpolation-filters="sRGB">
<feFlood flood-opacity="0" result="BackgroundImageFix"/>
<feBlend mode="normal" in="SourceGraphic" in2="BackgroundImageFix" result="shape"/>
<feColorMatrix in="SourceAlpha" type="matrix" values="0 0 0 0 0 0 0 0 0 0 0 0 0 0 0 0 0 0 127 0" result="hardAlpha"/>
<feOffset dy="4"/>
<feGaussianBlur stdDeviation="2"/>
<feComposite in2="hardAlpha" operator="arithmetic" k2="-1" k3="1"/>
<feColorMatrix type="matrix" values="0 0 0 0 0 0 0 0 0 0 0 0 0 0 0 0 0 0 0.25 0"/>
<feBlend mode="normal" in2="shape" result="effect1_innerShadow_24_12"/>
</filter>
</defs>
</svg>
